<svg width="96" height="96" xmlns="http://www.w3.org/2000/svg" xmlns:xlink="http://www.w3.org/1999/xlink" xml:space="preserve" overflow="hidden"><g transform="translate(-48 -156)"><g><path d="M133.5 231.6 121 219.1C119.3 217.4 117 216.8 114.8 217.2L110.4 212.8C114.3 207.8 116.6 201.4 116.6 194.6 116.6 178.1 103.1 164.6 86.6 164.6 70.1 164.6 56.6 178.1 56.6 194.6 56.6 211.1 70.1 224.6 86.6 224.6 93.4 224.6 99.7 222.3 104.8 218.4L109.2 222.8C108.8 225 109.4 227.3 111.1 229L123.6 241.5C125 242.9 126.8 243.6 128.6 243.6 130.4 243.6 132.2 242.9 133.6 241.5 136.2 238.7 136.2 234.3 133.5 231.6ZM86.5 218.5C73.3 218.5 62.5 207.7 62.5 194.5 62.5 181.3 73.3 170.5 86.5 170.5 99.7 170.5 110.5 181.3 110.5 194.5 110.5 207.7 99.7 218.5 86.5 218.5Z" fill="#FFFFFF" fill-rule="nonzero" fill-opacity="1"/></g></g></svg>