<svg width="98" height="98" xmlns="http://www.w3.org/2000/svg" xmlns:xlink="http://www.w3.org/1999/xlink" xml:space="preserve" overflow="hidden"><g transform="translate(-114 -54)"><g><g><g><g><path d="M179 85C179 93.8366 171.837 101 163 101 154.163 101 147 93.8366 147 85 147 76.1634 154.163 69 163 69 171.837 69 179 76.1634 179 85Z" fill="#FFFFFF" fill-rule="nonzero" fill-opacity="1"/><path d="M195 137 195 121C195 118.6 193.8 116.2 191.8 114.6 187.4 111 181.8 108.6 176.2 107 172.2 105.8 167.8 105 163 105 158.6 105 154.2 105.8 149.8 107 144.2 108.6 138.6 111.4 134.2 114.6 132.2 116.2 131 118.6 131 121L131 137 195 137Z" fill="#FFFFFF" fill-rule="nonzero" fill-opacity="1"/></g></g></g></g></g></svg>